<svg width="21" height="21" viewBox="0 0 21 21" fill="none" xmlns="http://www.w3.org/2000/svg"><path d="M7.66487 11.84L5.52887 11.816C4.74487 11.816 4.14487 11.832 3.72887 11.864C3.47287 14.168 3.34487 16.024 3.34487 17.432C3.34487 18.824 3.39287 19.8 3.48887 20.36C3.07287 20.392 2.84887 20.408 2.81687 20.408C2.08087 20.408 1.52887 20.248 1.16087 19.928C0.808867 19.608 0.632867 19.064 0.632867 18.296C0.632867 17.528 0.864867 15.504 1.32887 12.224C0.880867 12.336 0.496867 12.456 0.176867 12.584C0.144867 12.296 0.128867 12.064 0.128867 11.888C0.128867 10.912 0.624867 10.304 1.61687 10.064C1.98487 7.376 2.18487 5.24 2.21687 3.656C1.59287 3.656 1.16887 3.576 0.944867 3.416C0.720867 3.24 0.608867 2.912 0.608867 2.432C0.608867 1.936 0.672867 1.512 0.800867 1.16C2.44887 1.384 4.24087 1.496 6.17687 1.496C8.11287 1.496 9.96087 1.32 11.7209 0.967999C11.5129 2.264 10.6089 3.04 9.00887 3.296C8.06487 3.456 6.63287 3.568 4.71287 3.632C4.71287 4.384 4.46487 6.496 3.96887 9.968C4.96087 10 5.68087 10.016 6.12887 10.016C7.53687 10.016 8.53687 9.784 9.12887 9.32C9.16087 9.576 9.17687 9.784 9.17687 9.944C9.17687 11.208 8.67287 11.84 7.66487 11.84ZM15.3266 10.918C14.8326 11.5007 14.459 12.2227 14.2056 13.084C13.965 13.9327 13.8446 14.8447 13.8446 15.82C13.8446 16.7953 14.0093 17.5807 14.3386 18.176C14.668 18.7713 15.105 19.069 15.6496 19.069C16.207 19.069 16.7516 18.9043 17.2836 18.575C17.8156 18.2457 18.2653 17.7897 18.6326 17.207C19.1013 17.2703 19.3356 17.4413 19.3356 17.72C18.9936 18.3533 18.563 18.8727 18.0436 19.278C17.537 19.6833 17.062 19.9493 16.6186 20.076C16.1753 20.2153 15.7256 20.285 15.2696 20.285C14.2943 20.285 13.471 19.905 12.7996 19.145C12.1283 18.3723 11.7926 17.2577 11.7926 15.801C11.7926 13.9517 12.293 12.362 13.2936 11.032C14.2943 9.702 15.6243 9.037 17.2836 9.037C18.1956 9.037 18.886 9.27767 19.3546 9.759C19.8233 10.2277 20.0576 10.7787 20.0576 11.412C20.0576 12.0327 19.8803 12.5647 19.5256 13.008C19.1836 13.4513 18.7403 13.673 18.1956 13.673C17.8536 13.673 17.5623 13.616 17.3216 13.502C17.5243 13.274 17.6953 12.9573 17.8346 12.552C17.9866 12.134 18.0626 11.7287 18.0626 11.336C18.0626 10.462 17.7016 10.025 16.9796 10.025C16.3716 10.025 15.8206 10.3227 15.3266 10.918Z" fill="black"/></svg>
