<svg width="161" height="62" viewBox="0 0 161 62" fill="none" xmlns="http://www.w3.org/2000/svg">
<path d="M45.6159 33.196C45.6159 34.324 45.8199 35.248 46.2279 35.968C46.6599 36.664 47.2599 37.012 48.0279 37.012C49.1559 37.012 50.2239 36.352 51.2319 35.032C52.2639 33.712 53.0799 32.02 53.6799 29.956C54.3039 27.892 54.6159 25.936 54.6159 24.088C54.6159 22.216 54.5439 20.704 54.3999 19.552C55.1199 19.504 55.6239 19.48 55.9119 19.48C57.1359 19.48 58.0599 19.708 58.6839 20.164C59.3079 20.62 59.6199 21.436 59.6199 22.612C59.6199 23.068 59.3319 24.928 58.7559 28.192C58.1799 31.432 57.8919 34.036 57.8919 36.004C57.8919 37.948 58.2639 39.676 59.0079 41.188C57.2079 40.876 55.8879 40.216 55.0479 39.208C54.2079 38.176 53.7879 36.7 53.7879 34.78C53.7879 34.444 53.8359 33.796 53.9319 32.836C53.2839 35.116 52.1319 36.952 50.4759 38.344C48.8199 39.736 47.1879 40.432 45.5799 40.432C43.9959 40.432 42.7119 39.844 41.7279 38.668C40.7679 37.468 40.2879 35.776 40.2879 33.592C40.2879 31.408 40.6719 29.296 41.4399 27.256C42.2319 25.192 43.4079 23.452 44.9679 22.036C46.5279 20.596 48.2679 19.876 50.1879 19.876C51.2919 19.876 52.4199 20.14 53.5719 20.668C51.1479 21.532 49.2159 23.236 47.7759 25.78C46.3359 28.3 45.6159 30.772 45.6159 33.196ZM66.9555 5.548C68.6595 6.004 69.8235 6.832 70.4475 8.032C71.0955 9.208 71.4195 10.516 71.4195 11.956C71.4195 13.396 71.1915 15.856 70.7355 19.336C70.2795 22.792 69.9675 25.552 69.7995 27.616C70.5195 25.048 71.5395 23.008 72.8595 21.496C74.2035 19.984 75.6435 19.228 77.1795 19.228C78.7155 19.228 80.0355 19.96 81.1395 21.424C82.2675 22.888 82.8315 24.76 82.8315 27.04C82.8315 30.568 81.8835 33.616 79.9875 36.184C78.1155 38.728 75.9675 40 73.5435 40C72.7035 40 71.8635 39.808 71.0235 39.424C72.0555 39.136 72.9915 38.548 73.8315 37.66C74.6715 36.772 75.3555 35.752 75.8835 34.6C76.9635 32.2 77.5035 29.8 77.5035 27.4C77.5035 26.224 77.2755 25.192 76.8195 24.304C76.3875 23.416 75.7995 22.972 75.0555 22.972C73.8555 22.972 72.6315 24.196 71.3835 26.644C70.1595 29.092 69.5115 32.14 69.4395 35.788V36.472C69.4875 37.312 69.6915 38.704 70.0515 40.648C66.5955 39.856 64.8675 37.372 64.8675 33.196C64.8675 31.492 65.2635 28.06 66.0555 22.9C66.8715 17.74 67.2795 13.972 67.2795 11.596C67.2795 9.22 67.1715 7.204 66.9555 5.548ZM94.086 22.108C94.086 22.468 93.786 24.364 93.186 27.796C92.61 31.204 92.31 34.024 92.286 36.256C92.286 38.464 92.43 39.892 92.718 40.54C90.846 40.06 89.586 39.34 88.938 38.38C88.29 37.396 87.966 35.968 87.966 34.096C87.966 33.088 88.158 31.264 88.542 28.624C88.926 25.984 89.118 23.932 89.118 22.468C89.118 21.004 89.046 19.876 88.902 19.084C89.43 19.036 89.922 19.012 90.378 19.012C91.77 19.012 92.73 19.252 93.258 19.732C93.81 20.188 94.086 20.98 94.086 22.108ZM94.626 15.844C93.954 15.94 93.366 15.988 92.862 15.988C90.39 15.988 89.154 15.124 89.154 13.396C89.154 12.772 89.334 11.92 89.694 10.84C90.366 10.744 90.954 10.696 91.458 10.696C93.93 10.696 95.166 11.56 95.166 13.288C95.166 13.912 94.986 14.764 94.626 15.844ZM106.876 31.144C105.724 31.144 104.596 31.012 103.492 30.748C103.468 30.988 103.456 31.36 103.456 31.864C103.456 33.856 103.828 35.356 104.572 36.364C105.316 37.372 106.204 37.876 107.236 37.876C108.268 37.876 109.252 37.564 110.188 36.94C111.124 36.316 111.94 35.452 112.636 34.348C113.5 34.54 113.932 34.984 113.932 35.68C111.82 38.92 109.096 40.54 105.76 40.54C103.744 40.54 101.98 39.772 100.468 38.236C98.9564 36.676 98.2004 34.516 98.2004 31.756C98.2004 29.692 98.5964 27.736 99.3884 25.888C100.18 24.016 101.44 22.444 103.168 21.172C104.896 19.876 106.804 19.228 108.892 19.228C111.004 19.228 112.552 19.708 113.536 20.668C114.52 21.628 115.012 22.888 115.012 24.448C115.012 26.704 114.22 28.384 112.636 29.488C111.076 30.592 109.156 31.144 106.876 31.144ZM108.388 21.46C107.164 21.46 106.132 22.216 105.292 23.728C104.452 25.24 103.9 27.076 103.636 29.236H104.176C106.264 29.236 107.8 28.696 108.784 27.616C109.792 26.536 110.296 25.24 110.296 23.728C110.296 23.104 110.128 22.576 109.792 22.144C109.48 21.688 109.012 21.46 108.388 21.46ZM132.673 19.228C134.089 19.228 135.097 19.672 135.697 20.56C136.321 21.424 136.633 22.612 136.633 24.124C136.633 25.612 136.393 27.712 135.913 30.424C135.457 33.136 135.229 35.116 135.229 36.364C135.229 37.588 135.385 38.488 135.697 39.064C136.009 39.616 136.537 40.096 137.281 40.504C136.969 40.528 136.525 40.54 135.949 40.54C133.933 40.54 132.493 40.228 131.629 39.604C130.789 38.98 130.369 37.888 130.369 36.328C130.369 35.44 130.609 33.712 131.089 31.144C131.569 28.552 131.809 26.62 131.809 25.348C131.809 23.764 131.329 22.972 130.369 22.972C129.817 22.972 129.193 23.296 128.497 23.944C127.801 24.592 127.129 25.48 126.481 26.608C125.833 27.712 125.293 29.14 124.861 30.892C124.429 32.644 124.213 34.396 124.213 36.148C124.213 37.876 124.285 39.16 124.429 40C123.661 40.048 123.157 40.072 122.917 40.072C121.549 40.072 120.565 39.832 119.965 39.352C119.365 38.872 119.065 38.08 119.065 36.976C119.065 36.496 119.317 34.648 119.821 31.432C120.325 28.216 120.577 25.66 120.577 23.764C120.577 21.844 120.373 20.08 119.965 18.472C121.717 19.024 122.941 19.816 123.637 20.848C124.333 21.856 124.681 23.02 124.681 24.34C124.681 25.636 124.537 27.148 124.249 28.876C125.041 26.188 126.289 23.908 127.993 22.036C129.697 20.164 131.257 19.228 132.673 19.228Z" fill="#3D3D3D"/>
<path d="M52.9241 52.31C53.3681 52.406 53.5901 52.628 53.5901 52.976C53.1341 53.804 52.5761 54.476 51.9161 54.992C51.2561 55.508 50.6321 55.85 50.0441 56.018C49.4561 56.186 48.8501 56.27 48.2261 56.27C46.8101 56.27 45.6221 55.73 44.6621 54.65C43.7021 53.57 43.2221 51.998 43.2221 49.934C43.2221 47.63 43.8161 45.668 45.0041 44.048C45.5921 43.268 46.3421 42.65 47.2541 42.194C48.1781 41.726 49.2401 41.492 50.4401 41.492C51.6521 41.492 52.5701 41.816 53.1941 42.464C53.8301 43.1 54.1481 43.856 54.1481 44.732C54.1481 45.596 53.9081 46.304 53.4281 46.856C52.9481 47.396 52.3241 47.666 51.5561 47.666C51.2921 47.666 50.9861 47.618 50.6381 47.522C50.8901 47.21 51.1121 46.766 51.3041 46.19C51.4961 45.614 51.5921 45.068 51.5921 44.552C51.5921 44.036 51.4721 43.616 51.2321 43.292C50.9921 42.968 50.6141 42.806 50.0981 42.806C49.3061 42.806 48.5921 43.172 47.9561 43.904C47.3201 44.636 46.8461 45.536 46.5341 46.604C46.2221 47.672 46.0661 48.776 46.0661 49.916C46.0661 51.452 46.3661 52.616 46.9661 53.408C47.5661 54.2 48.3341 54.596 49.2701 54.596C49.8581 54.596 50.4701 54.398 51.1061 54.002C51.7421 53.606 52.3481 53.042 52.9241 52.31ZM58.5135 50.438C58.9095 49.082 59.5275 47.942 60.3675 47.018C61.2075 46.082 61.9875 45.614 62.7075 45.614C63.4395 45.614 63.9555 45.836 64.2555 46.28C64.5675 46.712 64.7235 47.306 64.7235 48.062C64.7235 48.806 64.6035 49.856 64.3635 51.212C64.1355 52.568 64.0215 53.558 64.0215 54.182C64.0215 54.794 64.0995 55.244 64.2555 55.532C64.4115 55.808 64.6755 56.048 65.0475 56.252C64.8915 56.264 64.6695 56.27 64.3815 56.27C63.3735 56.27 62.6535 56.114 62.2215 55.802C61.8015 55.49 61.5915 54.944 61.5915 54.164C61.5915 53.72 61.7115 52.856 61.9515 51.572C62.1915 50.276 62.3115 49.31 62.3115 48.674C62.3115 47.882 62.0715 47.486 61.5915 47.486C61.3035 47.486 60.9855 47.648 60.6375 47.972C60.2895 48.296 59.9535 48.74 59.6295 49.304C59.3175 49.856 59.0535 50.57 58.8375 51.446C58.6215 52.322 58.5135 53.198 58.5135 54.074C58.5135 54.938 58.5495 55.58 58.6215 56C58.2375 56.024 57.9855 56.036 57.8655 56.036C57.1815 56.036 56.6895 55.922 56.3895 55.694C56.0895 55.454 55.9395 55.076 55.9395 54.56C55.9395 54.044 56.0415 53.06 56.2455 51.608C56.8935 47.144 57.2175 43.754 57.2175 41.438C57.2175 40.394 57.1455 39.692 57.0015 39.332C57.9015 39.572 58.5135 39.938 58.8375 40.43C59.1735 40.91 59.3415 41.594 59.3415 42.482C59.3415 43.082 59.2215 44.342 58.9815 46.262C58.7535 48.182 58.5975 49.574 58.5135 50.438ZM71.1872 51.572C70.6112 51.572 70.0472 51.506 69.4952 51.374C69.4832 51.494 69.4772 51.68 69.4772 51.932C69.4772 52.928 69.6632 53.678 70.0352 54.182C70.4072 54.686 70.8512 54.938 71.3672 54.938C71.8832 54.938 72.3752 54.782 72.8432 54.47C73.3112 54.158 73.7192 53.726 74.0672 53.174C74.4992 53.27 74.7152 53.492 74.7152 53.84C73.6592 55.46 72.2972 56.27 70.6292 56.27C69.6212 56.27 68.7392 55.886 67.9832 55.118C67.2272 54.338 66.8492 53.258 66.8492 51.878C66.8492 50.846 67.0472 49.868 67.4432 48.944C67.8392 48.008 68.4692 47.222 69.3332 46.586C70.1972 45.938 71.1512 45.614 72.1952 45.614C73.2512 45.614 74.0252 45.854 74.5172 46.334C75.0092 46.814 75.2552 47.444 75.2552 48.224C75.2552 49.352 74.8592 50.192 74.0672 50.744C73.2872 51.296 72.3272 51.572 71.1872 51.572ZM71.9432 46.73C71.3312 46.73 70.8152 47.108 70.3952 47.864C69.9752 48.62 69.6992 49.538 69.5672 50.618H69.8372C70.8812 50.618 71.6492 50.348 72.1412 49.808C72.6452 49.268 72.8972 48.62 72.8972 47.864C72.8972 47.552 72.8132 47.288 72.6452 47.072C72.4892 46.844 72.2552 46.73 71.9432 46.73ZM79.3335 52.364C79.3335 53.792 79.7655 54.506 80.6295 54.506C81.0855 54.506 81.5295 54.26 81.9615 53.768C82.3935 53.276 82.7415 52.616 83.0055 51.788C83.2815 50.96 83.5155 50.078 83.7075 49.142C83.9115 48.194 84.0615 47.192 84.1575 46.136C84.3255 44.096 84.4095 42.506 84.4095 41.366C84.4095 40.214 84.3615 39.35 84.2655 38.774C85.1295 38.966 85.7355 39.374 86.0835 39.998C86.4315 40.622 86.6055 41.408 86.6055 42.356C86.6055 43.304 86.4015 45.068 85.9935 47.648C85.5975 50.228 85.3995 52.112 85.3995 53.3C85.3995 54.488 85.4535 55.496 85.5615 56.324C84.7095 56.096 84.1215 55.688 83.7975 55.1C83.4855 54.5 83.3295 53.75 83.3295 52.85C82.9575 53.882 82.3995 54.698 81.6555 55.298C80.9115 55.898 80.1435 56.198 79.3515 56.198C78.5595 56.198 77.9115 55.898 77.4075 55.298C76.9155 54.686 76.6695 53.792 76.6695 52.616C76.6695 50.756 77.1795 49.16 78.1995 47.828C79.2195 46.484 80.4255 45.812 81.8175 45.812C82.2135 45.812 82.8375 45.908 83.6895 46.1C82.9455 46.292 82.2795 46.628 81.6915 47.108C81.1155 47.576 80.6655 48.116 80.3415 48.728C79.6695 49.94 79.3335 51.152 79.3335 52.364ZM93.6113 46.982C92.8313 46.982 92.1353 47.51 91.5233 48.566C90.9113 49.61 90.6053 50.654 90.6053 51.698C90.6053 53.882 91.1693 54.974 92.2973 54.974C93.1013 54.974 93.7553 54.452 94.2593 53.408C94.7633 52.352 95.0153 51.17 95.0153 49.862C95.0153 47.942 94.5473 46.982 93.6113 46.982ZM92.0813 45.362C92.2133 45.362 92.3333 45.404 92.4413 45.488C92.5613 45.56 92.6213 45.638 92.6213 45.722C91.4093 46.562 90.6833 47.732 90.4433 49.232C90.6953 48.56 91.0013 47.978 91.3613 47.486C91.7333 46.994 92.1173 46.622 92.5133 46.37C93.2693 45.902 94.0073 45.668 94.7273 45.668C95.4473 45.668 96.0593 46.022 96.5633 46.73C97.0673 47.438 97.3193 48.386 97.3193 49.574C97.3193 50.906 97.0493 52.13 96.5093 53.246C95.9093 54.506 95.0573 55.376 93.9533 55.856C93.3293 56.132 92.6453 56.27 91.9013 56.27C90.8573 56.27 89.9453 55.868 89.1653 55.064C88.3973 54.248 88.0133 53.084 88.0133 51.572C88.0133 50.048 88.3853 48.71 89.1293 47.558C89.8733 46.394 90.8573 45.662 92.0813 45.362ZM105.297 45.614C105.657 45.59 105.909 45.578 106.053 45.578C106.677 45.578 107.151 45.692 107.475 45.92C107.799 46.148 107.961 46.568 107.961 47.18C107.961 47.372 107.847 48.218 107.619 49.718C107.391 51.206 107.277 52.484 107.277 53.552C107.277 54.62 107.391 55.562 107.619 56.378C106.719 56.09 106.095 55.682 105.747 55.154C105.399 54.626 105.225 53.972 105.225 53.192C105.225 52.892 105.291 52.214 105.423 51.158C105.051 52.526 104.481 53.678 103.713 54.614C102.957 55.538 102.243 56 101.571 56C100.191 56 99.5007 55.004 99.5007 53.012C99.5007 52.352 99.5967 51.434 99.7887 50.258C99.9927 49.07 100.095 48.17 100.095 47.558C100.095 46.946 100.011 46.328 99.8427 45.704C100.839 45.704 101.559 45.836 102.003 46.1C102.459 46.352 102.687 46.862 102.687 47.63C102.687 48.038 102.561 48.848 102.309 50.06C102.057 51.272 101.931 52.184 101.931 52.796C101.931 53.684 102.171 54.128 102.651 54.128C102.891 54.128 103.167 53.966 103.479 53.642C103.791 53.306 104.091 52.868 104.379 52.328C104.667 51.776 104.907 51.092 105.099 50.276C105.303 49.448 105.405 48.614 105.405 47.774C105.405 46.922 105.369 46.202 105.297 45.614ZM114.107 47.54C114.047 47.972 113.921 48.722 113.729 49.79C113.321 52.058 113.117 53.738 113.117 54.83C113.117 55.922 113.201 56.654 113.369 57.026C112.445 56.786 111.809 56.42 111.461 55.928C111.113 55.424 110.939 54.716 110.939 53.804C110.939 53 111.065 51.902 111.317 50.51C111.569 49.106 111.731 48.158 111.803 47.666C111.179 47.774 110.513 47.984 109.805 48.296C109.781 48.032 109.769 47.834 109.769 47.702C109.769 47.066 109.961 46.634 110.345 46.406C110.729 46.166 111.281 46.04 112.001 46.028C112.085 45.128 112.127 44.48 112.127 44.084C112.127 43.688 112.121 43.358 112.109 43.094C112.109 42.83 112.109 42.632 112.109 42.5C112.901 42.584 113.477 42.824 113.837 43.22C114.197 43.604 114.377 44.156 114.377 44.876C114.377 45.164 114.347 45.566 114.287 46.082C115.295 46.058 116.033 45.86 116.501 45.488C116.525 45.728 116.537 45.908 116.537 46.028C116.537 46.604 116.435 47.006 116.231 47.234C116.027 47.45 115.685 47.558 115.205 47.558C114.725 47.558 114.359 47.552 114.107 47.54ZM121.32 51.572C120.744 51.572 120.18 51.506 119.628 51.374C119.616 51.494 119.61 51.68 119.61 51.932C119.61 52.928 119.796 53.678 120.168 54.182C120.54 54.686 120.984 54.938 121.5 54.938C122.016 54.938 122.508 54.782 122.976 54.47C123.444 54.158 123.852 53.726 124.2 53.174C124.632 53.27 124.848 53.492 124.848 53.84C123.792 55.46 122.43 56.27 120.762 56.27C119.754 56.27 118.872 55.886 118.116 55.118C117.36 54.338 116.982 53.258 116.982 51.878C116.982 50.846 117.18 49.868 117.576 48.944C117.972 48.008 118.602 47.222 119.466 46.586C120.33 45.938 121.284 45.614 122.328 45.614C123.384 45.614 124.158 45.854 124.65 46.334C125.142 46.814 125.388 47.444 125.388 48.224C125.388 49.352 124.992 50.192 124.2 50.744C123.42 51.296 122.46 51.572 121.32 51.572ZM122.076 46.73C121.464 46.73 120.948 47.108 120.528 47.864C120.108 48.62 119.832 49.538 119.7 50.618H119.97C121.014 50.618 121.782 50.348 122.274 49.808C122.778 49.268 123.03 48.62 123.03 47.864C123.03 47.552 122.946 47.288 122.778 47.072C122.622 46.844 122.388 46.73 122.076 46.73ZM129.502 52.598C129.502 53.162 129.604 53.624 129.808 53.984C130.024 54.332 130.324 54.506 130.708 54.506C131.272 54.506 131.806 54.176 132.31 53.516C132.826 52.856 133.234 52.01 133.534 50.978C133.846 49.946 134.002 48.968 134.002 48.044C134.002 47.108 133.966 46.352 133.894 45.776C134.254 45.752 134.506 45.74 134.65 45.74C135.262 45.74 135.724 45.854 136.036 46.082C136.348 46.31 136.504 46.718 136.504 47.306C136.504 47.534 136.36 48.464 136.072 50.096C135.784 51.716 135.64 53.018 135.64 54.002C135.64 54.974 135.826 55.838 136.198 56.594C135.298 56.438 134.638 56.108 134.218 55.604C133.798 55.088 133.588 54.35 133.588 53.39C133.588 53.222 133.612 52.898 133.66 52.418C133.336 53.558 132.76 54.476 131.932 55.172C131.104 55.868 130.288 56.216 129.484 56.216C128.692 56.216 128.05 55.922 127.558 55.334C127.078 54.734 126.838 53.888 126.838 52.796C126.838 51.704 127.03 50.648 127.414 49.628C127.81 48.596 128.398 47.726 129.178 47.018C129.958 46.298 130.828 45.938 131.788 45.938C132.34 45.938 132.904 46.07 133.48 46.334C132.268 46.766 131.302 47.618 130.582 48.89C129.862 50.15 129.502 51.386 129.502 52.598ZM144.654 45.614C145.014 45.59 145.266 45.578 145.41 45.578C146.034 45.578 146.508 45.692 146.832 45.92C147.156 46.148 147.318 46.568 147.318 47.18C147.318 47.372 147.204 48.218 146.976 49.718C146.748 51.206 146.634 52.484 146.634 53.552C146.634 54.62 146.748 55.562 146.976 56.378C146.076 56.09 145.452 55.682 145.104 55.154C144.756 54.626 144.582 53.972 144.582 53.192C144.582 52.892 144.648 52.214 144.78 51.158C144.408 52.526 143.838 53.678 143.07 54.614C142.314 55.538 141.6 56 140.928 56C139.548 56 138.858 55.004 138.858 53.012C138.858 52.352 138.954 51.434 139.146 50.258C139.35 49.07 139.452 48.17 139.452 47.558C139.452 46.946 139.368 46.328 139.2 45.704C140.196 45.704 140.916 45.836 141.36 46.1C141.816 46.352 142.044 46.862 142.044 47.63C142.044 48.038 141.918 48.848 141.666 50.06C141.414 51.272 141.288 52.184 141.288 52.796C141.288 53.684 141.528 54.128 142.008 54.128C142.248 54.128 142.524 53.966 142.836 53.642C143.148 53.306 143.448 52.868 143.736 52.328C144.024 51.776 144.264 51.092 144.456 50.276C144.66 49.448 144.762 48.614 144.762 47.774C144.762 46.922 144.726 46.202 144.654 45.614ZM151.808 52.364C151.808 53.792 152.24 54.506 153.104 54.506C153.56 54.506 154.004 54.26 154.436 53.768C154.868 53.276 155.216 52.616 155.48 51.788C155.756 50.96 155.99 50.078 156.182 49.142C156.386 48.194 156.536 47.192 156.632 46.136C156.8 44.096 156.884 42.506 156.884 41.366C156.884 40.214 156.836 39.35 156.74 38.774C157.604 38.966 158.21 39.374 158.558 39.998C158.906 40.622 159.08 41.408 159.08 42.356C159.08 43.304 158.876 45.068 158.468 47.648C158.072 50.228 157.874 52.112 157.874 53.3C157.874 54.488 157.928 55.496 158.036 56.324C157.184 56.096 156.596 55.688 156.272 55.1C155.96 54.5 155.804 53.75 155.804 52.85C155.432 53.882 154.874 54.698 154.13 55.298C153.386 55.898 152.618 56.198 151.826 56.198C151.034 56.198 150.386 55.898 149.882 55.298C149.39 54.686 149.144 53.792 149.144 52.616C149.144 50.756 149.654 49.16 150.674 47.828C151.694 46.484 152.9 45.812 154.292 45.812C154.688 45.812 155.312 45.908 156.164 46.1C155.42 46.292 154.754 46.628 154.166 47.108C153.59 47.576 153.14 48.116 152.816 48.728C152.144 49.94 151.808 51.152 151.808 52.364Z" fill="#3D3D3D"/>
<path d="M32.2449 33.952L25.3329 33.88C23.3649 33.88 21.8529 33.904 20.7969 33.952C20.0289 40.672 19.6449 46.12 19.6449 50.296C19.6449 54.472 19.7889 57.4 20.0769 59.08C18.5409 59.176 17.5329 59.224 17.0529 59.224C14.3169 59.224 12.3489 58.744 11.1489 57.784C9.94888 56.824 9.34888 55.144 9.34888 52.744C9.34888 50.296 10.0209 44.464 11.3649 35.248C9.82888 35.728 8.70088 36.136 7.98088 36.472C7.88488 35.416 7.83688 34.624 7.83688 34.096C7.83688 30.784 9.34888 28.72 12.3729 27.904C13.2849 21.328 13.8369 15.64 14.0289 10.84C11.5809 10.84 10.0209 10.504 9.34888 9.832C8.72488 9.16 8.41288 7.672 8.41288 5.368C8.60488 3.208 8.79688 1.792 8.98888 1.12C14.4129 1.84 20.3649 2.2 26.8449 2.2C33.3249 2.2 39.5889 1.624 45.6369 0.471998C44.9649 5.512 41.8929 8.536 36.4209 9.544C33.4449 10.12 29.1969 10.504 23.6769 10.696C23.6289 11.32 22.9329 16.912 21.5889 27.472C24.3729 27.568 26.2689 27.616 27.2769 27.616C31.8369 27.616 35.0769 26.824 36.9969 25.24C37.0929 26.2 37.1409 26.92 37.1409 27.4C37.1409 31.768 35.5089 33.952 32.2449 33.952Z" fill="#3D3D3D"/>
</svg>
